<svg width="76" height="73" viewBox="0 0 76 73" fill="none" xmlns="http://www.w3.org/2000/svg">
<g filter="url(#filter0_i_1_41)">
<ellipse cx="38" cy="36.5" rx="38" ry="36.5" fill="url(#paint0_radial_1_41)"/>
</g>
<path d="M20.5 25L22.4084 30.8734L28.584 30.8734L23.5878 34.5033L25.4962 40.3766L20.5 36.7467L15.5038 40.3766L17.4122 34.5033L12.416 30.8734L18.5916 30.8734L20.5 25Z" fill="#D3500A"/>
<path d="M27.5 43L29.4084 48.8734L35.584 48.8734L30.5878 52.5033L32.4962 58.3766L27.5 54.7467L22.5038 58.3766L24.4122 52.5033L19.416 48.8734L25.5916 48.8734L27.5 43Z" fill="#D3500A"/>
<path d="M49.5 43L51.4084 48.8734L57.584 48.8734L52.5878 52.5033L54.4962 58.3766L49.5 54.7467L44.5038 58.3766L46.4122 52.5033L41.416 48.8734L47.5916 48.8734L49.5 43Z" fill="#D3500A"/>
<path d="M54.5 25L56.4084 30.8734L62.584 30.8734L57.5878 34.5033L59.4962 40.3766L54.5 36.7467L49.5038 40.3766L51.4122 34.5033L46.416 30.8734L52.5916 30.8734L54.5 25Z" fill="#D3500A"/>
<path d="M37.5 12L39.4084 17.8734L45.584 17.8734L40.5878 21.5033L42.4962 27.3766L37.5 23.7467L32.5038 27.3766L34.4122 21.5033L29.416 17.8734L35.5916 17.8734L37.5 12Z" fill="#D3500A"/>
<defs>
<filter id="filter0_i_1_41" x="0" y="0" width="76" height="77" filterUnits="userSpaceOnUse" color-interpolation-filters="sRGB">
<feFlood flood-opacity="0" result="BackgroundImageFix"/>
<feBlend mode="normal" in="SourceGraphic" in2="BackgroundImageFix" result="shape"/>
<feColorMatrix in="SourceAlpha" type="matrix" values="0 0 0 0 0 0 0 0 0 0 0 0 0 0 0 0 0 0 127 0" result="hardAlpha"/>
<feOffset dy="4"/>
<feGaussianBlur stdDeviation="2"/>
<feComposite in2="hardAlpha" operator="arithmetic" k2="-1" k3="1"/>
<feColorMatrix type="matrix" values="0 0 0 0 0.7125 0 0 0 0 0.372083 0 0 0 0 0.0742188 0 0 0 1 0"/>
<feBlend mode="normal" in2="shape" result="effect1_innerShadow_1_41"/>
</filter>
<radialGradient id="paint0_radial_1_41" cx="0" cy="0" r="1" gradientUnits="userSpaceOnUse" gradientTransform="translate(38 36.5) rotate(-90) scale(36.5 38)">
<stop stop-color="#F09E2B"/>
<stop offset="0.975" stop-color="#DC6F2C"/>
</radialGradient>
</defs>
</svg>
