<svg width="76" height="73" viewBox="0 0 76 73" fill="none" xmlns="http://www.w3.org/2000/svg">
<g filter="url(#filter0_i_1_40)">
<ellipse cx="38" cy="36.5" rx="38" ry="36.5" fill="url(#paint0_radial_1_40)"/>
</g>
<path d="M50.5 37L52.4084 42.8734L58.584 42.8734L53.5878 46.5033L55.4962 52.3766L50.5 48.7467L45.5038 52.3766L47.4122 46.5033L42.416 42.8734L48.5916 42.8734L50.5 37Z" fill="#D3500A"/>
<path d="M30.5 37L32.4084 42.8734L38.584 42.8734L33.5878 46.5033L35.4962 52.3766L30.5 48.7467L25.5038 52.3766L27.4122 46.5033L22.416 42.8734L28.5916 42.8734L30.5 37Z" fill="#D3500A"/>
<path d="M44.5 18L46.4084 23.8734L52.584 23.8734L47.5878 27.5033L49.4962 33.3766L44.5 29.7467L39.5038 33.3766L41.4122 27.5033L36.416 23.8734L42.5916 23.8734L44.5 18Z" fill="#D3500A"/>
<path d="M24.5 18L26.4084 23.8734L32.584 23.8734L27.5878 27.5033L29.4962 33.3766L24.5 29.7467L19.5038 33.3766L21.4122 27.5033L16.416 23.8734L22.5916 23.8734L24.5 18Z" fill="#D3500A"/>
<defs>
<filter id="filter0_i_1_40" x="0" y="0" width="76" height="77" filterUnits="userSpaceOnUse" color-interpolation-filters="sRGB">
<feFlood flood-opacity="0" result="BackgroundImageFix"/>
<feBlend mode="normal" in="SourceGraphic" in2="BackgroundImageFix" result="shape"/>
<feColorMatrix in="SourceAlpha" type="matrix" values="0 0 0 0 0 0 0 0 0 0 0 0 0 0 0 0 0 0 127 0" result="hardAlpha"/>
<feOffset dy="4"/>
<feGaussianBlur stdDeviation="2"/>
<feComposite in2="hardAlpha" operator="arithmetic" k2="-1" k3="1"/>
<feColorMatrix type="matrix" values="0 0 0 0 0.7125 0 0 0 0 0.372083 0 0 0 0 0.0742188 0 0 0 1 0"/>
<feBlend mode="normal" in2="shape" result="effect1_innerShadow_1_40"/>
</filter>
<radialGradient id="paint0_radial_1_40" cx="0" cy="0" r="1" gradientUnits="userSpaceOnUse" gradientTransform="translate(38 36.5) rotate(-90) scale(36.5 38)">
<stop stop-color="#F09E2B"/>
<stop offset="0.975" stop-color="#DC6F2C"/>
</radialGradient>
</defs>
</svg>
