<svg width="76" height="73" viewBox="0 0 76 73" fill="none" xmlns="http://www.w3.org/2000/svg">
<g filter="url(#filter0_i_1_39)">
<ellipse cx="38" cy="36.5" rx="38" ry="36.5" fill="url(#paint0_radial_1_39)"/>
</g>
<path d="M47.5 34L49.4084 39.8734L55.584 39.8734L50.5878 43.5033L52.4962 49.3766L47.5 45.7467L42.5038 49.3766L44.4122 43.5033L39.416 39.8734L45.5916 39.8734L47.5 34Z" fill="#D3500A"/>
<path d="M26.5 35L28.4084 40.8734L34.584 40.8734L29.5878 44.5033L31.4962 50.3766L26.5 46.7467L21.5038 50.3766L23.4122 44.5033L18.416 40.8734L24.5916 40.8734L26.5 35Z" fill="#D3500A"/>
<path d="M36.5 16L38.4084 21.8734L44.584 21.8734L39.5878 25.5033L41.4962 31.3766L36.5 27.7467L31.5038 31.3766L33.4122 25.5033L28.416 21.8734L34.5916 21.8734L36.5 16Z" fill="#D3500A"/>
<defs>
<filter id="filter0_i_1_39" x="0" y="0" width="76" height="77" filterUnits="userSpaceOnUse" color-interpolation-filters="sRGB">
<feFlood flood-opacity="0" result="BackgroundImageFix"/>
<feBlend mode="normal" in="SourceGraphic" in2="BackgroundImageFix" result="shape"/>
<feColorMatrix in="SourceAlpha" type="matrix" values="0 0 0 0 0 0 0 0 0 0 0 0 0 0 0 0 0 0 127 0" result="hardAlpha"/>
<feOffset dy="4"/>
<feGaussianBlur stdDeviation="2"/>
<feComposite in2="hardAlpha" operator="arithmetic" k2="-1" k3="1"/>
<feColorMatrix type="matrix" values="0 0 0 0 0.7125 0 0 0 0 0.372083 0 0 0 0 0.0742188 0 0 0 1 0"/>
<feBlend mode="normal" in2="shape" result="effect1_innerShadow_1_39"/>
</filter>
<radialGradient id="paint0_radial_1_39" cx="0" cy="0" r="1" gradientUnits="userSpaceOnUse" gradientTransform="translate(38 36.5) rotate(-90) scale(36.5 38)">
<stop stop-color="#F09E2B"/>
<stop offset="0.975" stop-color="#DC6F2C"/>
</radialGradient>
</defs>
</svg>
